<?xml version="1.0" encoding="UTF-8" standalone="no"?>
<svg
   xmlns:dc="http://purl.org/dc/elements/1.1/"
   xmlns:cc="http://creativecommons.org/ns#"
   xmlns:rdf="http://www.w3.org/1999/02/22-rdf-syntax-ns#"
   xmlns:svg="http://www.w3.org/2000/svg"
   xmlns="http://www.w3.org/2000/svg"
   xmlns:sodipodi="http://sodipodi.sourceforge.net/DTD/sodipodi-0.dtd"
   xmlns:inkscape="http://www.inkscape.org/namespaces/inkscape"
   width="480"
   height="480"
   viewBox="0 0 127 127"
   version="1.1"
   id="svg8"
   inkscape:version="1.0.1 (3bc2e813f5, 2020-09-07)"
   sodipodi:docname="operations-priority.svg">
  <defs
     id="defs2">
    <inkscape:path-effect
       effect="spiro"
       id="path-effect423"
       is_visible="true"
       lpeversion="1" />
    <inkscape:path-effect
       effect="simplify"
       id="path-effect421"
       is_visible="true"
       lpeversion="1"
       steps="1"
       threshold="0.00645161"
       smooth_angles="360"
       helper_size="0"
       simplify_individual_paths="false"
       simplify_just_coalesce="false" />
    <inkscape:path-effect
       effect="spiro"
       id="path-effect417"
       is_visible="true"
       lpeversion="1" />
    <inkscape:path-effect
       effect="simplify"
       id="path-effect415"
       is_visible="true"
       lpeversion="1"
       steps="1"
       threshold="0.00645161"
       smooth_angles="360"
       helper_size="0"
       simplify_individual_paths="false"
       simplify_just_coalesce="false" />
    <inkscape:path-effect
       effect="spiro"
       id="path-effect409"
       is_visible="true"
       lpeversion="1" />
    <inkscape:path-effect
       effect="simplify"
       id="path-effect407"
       is_visible="true"
       lpeversion="1"
       steps="1"
       threshold="0.00645161"
       smooth_angles="360"
       helper_size="0"
       simplify_individual_paths="false"
       simplify_just_coalesce="false" />
  </defs>
  <sodipodi:namedview
     id="base"
     pagecolor="#ffffff"
     bordercolor="#666666"
     borderopacity="1.0"
     inkscape:pageopacity="1"
     inkscape:pageshadow="2"
     inkscape:zoom="0.66449955"
     inkscape:cx="398.7789"
     inkscape:cy="279.77039"
     inkscape:document-units="mm"
     inkscape:current-layer="layer1"
     inkscape:document-rotation="0"
     showgrid="true"
     inkscape:window-width="1366"
     inkscape:window-height="699"
     inkscape:window-x="0"
     inkscape:window-y="0"
     inkscape:window-maximized="1"
     inkscape:pagecheckerboard="false"
     units="px"
     inkscape:snap-global="false">
    <inkscape:grid
       type="xygrid"
       id="grid401"
       spacingx="3.175"
       spacingy="3.175"
       empcolor="#813fff"
       empopacity="0.1372549"
       color="#3f848a"
       opacity="0.0627451"
       empspacing="10"
       dotted="false" />
  </sodipodi:namedview>
  <metadata
     id="metadata5">
    <rdf:RDF>
      <cc:Work
         rdf:about="">
        <dc:format>image/svg+xml</dc:format>
        <dc:type
           rdf:resource="http://purl.org/dc/dcmitype/StillImage" />
        <dc:title></dc:title>
      </cc:Work>
    </rdf:RDF>
  </metadata>
  <g
     inkscape:label="Layer 1"
     inkscape:groupmode="layer"
     id="layer1">
    <path
       style="fill:#000000;stroke-width:0.0902327"
       id="path1244"
       d="m 7.0518473,117.11841 c 1.1505271,0.0513 2.2965431,0.12175 3.4476447,0.0263 1.158251,-0.0962 3.261542,0.0535 4.416267,-0.13474 3.526128,0.0918 6.574535,0.13368 9.725334,-0.28758 1.438582,-0.1337 8.018118,-0.0368 9.462821,-0.10421 0.505653,-0.0117 0.964847,-0.0571 1.437895,0.0773 0.380423,0.0704 0.678778,-0.11896 0.761079,-0.51711 -0.289766,-0.81308 -0.03174,-0.20203 -0.02014,-0.15231 0.0095,0.041 -0.0134,0.0864 0,0.12592 0.0093,0.0279 0.01064,-0.0579 0.01301,-0.0874 0.01045,-0.12615 0.0042,-0.15679 -0.002,-0.28484 -0.03602,-0.37747 -0.102527,-0.41046 -0.132114,-0.78858 -0.114476,-1.91717 -0.100642,-3.84145 -0.119779,-5.76186 -0.09555,-3.26473 -0.0071,-6.525 0.178959,-9.783717 0.142844,-2.15252 0.29983,-4.303547 0.487251,-6.452249 0.09486,-0.958659 0.156051,-1.922965 0.299018,-2.875538 0.0036,-0.0176 0.02539,-0.06015 0.01045,-0.05209 -0.2034,0.108247 -0.465541,0.16016 -0.591751,0.361332 -0.05914,0.09431 0.202589,0.07511 0.308167,0.09064 0.381603,0.05572 0.824273,-0.04252 1.201508,-0.07994 1.884375,-0.187668 3.776005,-0.26196 5.666233,-0.347325 3.108471,-0.135964 -0.981485,-0.144556 2.128439,-0.114557 2.555172,0.06894 5.095436,-0.278752 7.604238,-0.75867 1.961255,-0.396531 3.963423,-0.40005 5.950901,-0.493336 0.836936,-0.10963 1.673242,0.02713 2.509908,0.02347 0.407385,0 0.616954,-0.02713 1.006602,-0.06234 0.533403,-0.06308 1.10659,-0.11271 0.944576,-0.885764 -0.04016,-0.07833 -0.0494,-0.161565 -0.055,-0.248612 -0.0047,-0.976188 -0.09705,-1.947239 -0.201452,-2.916166 -0.345408,-2.178765 -0.497235,-4.37748 -0.547101,-6.583676 -0.05542,-2.411826 0.158872,-4.815442 0.349919,-7.215462 0.198409,-2.411612 0.295154,-4.830482 0.412023,-7.247516 0.08069,-1.313609 0.148463,-2.633236 0.347572,-3.934157 0.06797,-0.324661 0.100465,-0.190537 -0.616932,0.189072 -0.002,0 0.02857,0.02493 0.114043,0.09321 0.498458,0.398586 1.02894,-0.35055 0.530492,-0.749136 v 0 c -0.353164,-0.283253 -0.887159,-0.140243 -0.895885,0.325442 -0.181818,1.335316 -0.263485,2.683983 -0.3409,4.029787 -0.110219,2.406916 -0.20195,4.815591 -0.403298,7.21664 -0.193508,2.432732 -0.413616,4.868907 -0.355517,7.313736 0.0494,2.233182 0.205276,4.459099 0.546737,6.665592 0.100911,0.954332 0.188698,1.910571 0.178742,2.872384 0.01241,0.173589 0.03899,0.348865 0.106532,0.508884 -0.01223,-0.152617 -0.03016,-0.180398 0.08817,-0.352603 0.07503,-0.109189 0.29437,-0.09769 -0.01538,-0.04619 -0.08779,0.01467 -0.176004,0.0264 -0.264012,0.03886 -0.347545,0.03447 -0.542388,0.06015 -0.904584,0.06234 -0.85788,0.0073 -1.71627,-0.131209 -2.574067,-0.01258 -2.025592,0.09922 -4.066612,0.09848 -6.064813,0.510206 -2.456227,0.474269 -4.942159,0.819099 -7.4448,0.753608 -3.123939,-0.02273 0.952156,-0.01868 -2.170369,0.112362 -1.904263,0.0814 -3.809966,0.146669 -5.7088,0.328917 -0.267653,0.02493 -0.535005,0.05279 -0.802974,0.07335 -0.05673,0.0073 -0.115284,-0.0073 -0.170482,0.0082 -0.01104,0 0.01774,0.03079 0.0071,0.0352 -0.243369,0.09872 -0.502461,0.152326 -0.741372,0.26262 -0.02511,0.01173 -0.0093,0.05721 -0.0138,0.0861 -0.128159,0.972595 -0.200405,1.952227 -0.288702,2.929441 -0.186313,2.158666 -0.338368,4.319684 -0.475442,6.482534 -0.182331,3.279837 -0.271803,6.560497 -0.180478,9.846277 0.01538,1.94232 -0.0069,3.88832 0.0951,5.82808 0.02718,0.37189 0.09073,0.39879 0.126885,0.76981 0.0047,0.0667 -0.01064,0.2835 -0.0077,0.30471 0.0022,0.0161 0.21871,0.68621 0.01676,-0.0462 0.03955,-0.1634 0.155087,-0.365 0.33112,-0.30728 -0.181678,-0.0402 -0.341989,-0.12827 -0.515266,-0.19757 -0.369968,-0.14808 -0.776494,0.0906 -1.175929,0.0975 -1.466931,0.078 -8.065209,0.0121 -9.527365,0.14387 -3.157838,0.425 -6.16969,0.0271 -9.747501,0.28897 -1.112752,0.18019 -3.206942,0.0284 -4.321432,0.11735 -1.133471,0.0904 -2.2623923,0.008 -3.3945364,-0.0505 -0.6201887,-0.0146 -0.6400502,0.91715 -0.019871,0.93211 z"
       sodipodi:nodetypes="cccccccccccccccccccccccccccccccccccsscccccccsccccccccccccccccccccccccccccc" />
    <path
       style="fill:#000000;stroke-width:0.0893001"
       id="path1246"
       d="m 63.815427,59.631245 c 1.678925,0.455945 3.414711,0.286793 5.112228,0.171914 2.26884,-0.223931 4.539704,-0.415452 6.81476,-0.3899 1.794,0.146202 3.575447,0.46713 5.370544,0.599547 1.815574,0.02671 6.366327,-0.0083 8.180118,0.08863 0.395482,0.01336 0.792649,0.02671 1.187483,-0.01908 0.0317,0 0.195541,-0.02754 0.239682,-0.05509 0.06107,-0.03924 0.116056,-0.09486 0.174072,-0.142266 -0.04202,0.03673 -0.09935,0.05175 -0.12613,0.110886 -0.01288,0.02838 0.04727,0.0093 0.07105,0.01 h 0.197252 c 0.201946,-0.0083 0.401817,-0.03505 0.602639,-0.06345 0.320168,-0.06594 0.643321,-0.09192 0.964812,-0.139191 0.580536,-0.117123 0.235759,-0.341644 0.213406,-1.069601 -0.0085,-0.292467 0.11414,0.156123 0.174907,0.361516 0.163154,-1.733856 0.105151,-3.490256 0.0887,-5.233878 -0.0234,-2.832515 -0.137375,-5.662103 -0.07191,-8.494532 0.174228,-2.533698 0.566256,-5.021144 0.794603,-7.545241 0.1311,-1.52162 0.136188,-3.055932 0.155353,-4.586071 0.0068,-0.576252 0.01187,-1.152674 0.0085,-1.729013 -5.94e-4,-0.195454 -0.0017,-0.390988 -5.94e-4,-0.58644 6.8e-5,0 0,0 0,0 -0.07174,0.160131 -0.156031,0.31067 -0.215424,0.480575 -0.0068,0.02004 0.03222,0 0.04817,0 0.05665,-0.0083 0.112953,-0.01431 0.169633,-0.01765 0.275411,-0.01432 0.449334,-0.0083 0.735582,0 1.27477,0.09743 2.547883,0.221761 3.824364,0.271179 2.066353,0.0083 1.389543,0.0051 3.455863,-0.01342 2.12519,0.04424 4.2488,0.181668 6.37265,0.292634 1.53926,0.13082 3.09402,-0.05112 4.63257,0.09791 1.65267,0.146775 2.45192,-0.04407 4.095,0.242646 1.46884,0.304573 1.95645,-0.269567 3.42451,0.04236 0.23809,0.05425 0.13959,0.02099 0.29811,0.08183 0.52043,0.17883 0.1799,-1.035038 0.1799,-1.035038 v 0 c 0,0 -0.10465,-0.04007 -0.37039,-0.09285 -1.47547,-0.287042 -1.9666,0.274824 -3.44037,-0.02934 -1.65632,-0.292887 -2.46949,-0.100208 -4.13567,-0.249824 -1.54671,-0.150542 -3.10929,0.02366 -4.6571,-0.09967 -2.13406,-0.103703 -4.26785,-0.232184 -6.40303,-0.277774 -2.05819,0.01172 -1.37339,0.0048 -3.431622,-0.0045 -1.279537,-0.04925 -2.555276,-0.181501 -3.833014,-0.281615 -0.114649,0 -1.105562,-0.05594 -1.205727,0.06094 -0.123129,0.144032 -0.203061,0.348325 -0.304565,0.522404 1.7e-5,0 5.1e-5,0.0083 0,0.01172 0.0012,0.199532 0.0012,0.399085 0.0017,0.598628 0.0051,0.567322 0.0068,1.134809 5.93e-4,1.702297 -0.01526,1.492233 -0.02357,2.988055 -0.14348,4.472772 -0.223751,2.557495 -0.624547,5.075915 -0.795366,7.642677 -0.06089,2.847541 0.05224,5.691909 0.07021,8.539533 0.01356,1.676746 0.06987,3.368272 -0.09481,5.034167 0.01018,0.171316 -0.01018,0.350828 0.02866,0.51397 0.02221,0.09468 0.125673,0.316682 0.143651,0.220424 0.04664,-0.248387 -0.06733,-0.514305 -0.04088,-0.768367 0.01187,-0.10921 0.276394,-0.164901 0.14314,-0.130915 -0.318234,0.05343 -0.639284,0.07432 -0.956586,0.140765 -0.176518,0.02503 -0.351952,0.0526 -0.529487,0.05843 -0.121466,0 -0.245434,-0.03756 -0.364483,0 -0.09421,0.02671 -0.180918,0.09168 -0.27138,0.137522 0.04043,-0.02588 0.166562,-0.08517 0.122976,-0.07261 -0.393029,0.11212 -0.806286,0.02922 -1.20198,0.05426 -1.809922,-0.08508 -6.356596,-0.05266 -8.167918,-0.08062 -1.806165,-0.133682 -3.598311,-0.465465 -5.404082,-0.599383 -2.28857,-0.02004 -4.572056,0.17976 -6.854764,0.395829 -1.613682,0.105946 -3.287272,0.269759 -4.88227,-0.165473 -0.515319,-0.194118 -0.71049,0.830736 -0.195172,1.024851 z"
       sodipodi:nodetypes="cccccccccccccccccccccccccccccccccsscccccccccccccccccccccccccccccccc" />
    <path
       style="fill:#000000;stroke-width:0.0753036"
       id="path1248"
       d="m 18.091178,103.14403 c 1.321057,-0.48956 2.712872,-0.74491 4.106415,-0.91911 0.259559,-0.0285 0.519809,-0.0504 0.780964,-0.0452 0.535488,0 0.538159,-0.75542 0.0023,-0.75726 v 0 c -0.293951,0 -0.586883,0.0244 -0.878693,0.0615 -1.450667,0.19064 -2.898137,0.46065 -4.279022,0.95621 -0.497769,0.18927 -0.230106,0.89322 0.267669,0.70395 z" />
    <path
       style="fill:#000000;stroke-width:0.0753036"
       id="path1250"
       d="m 20.358705,99.667923 c -0.11492,1.630947 -0.144548,3.266117 -0.210502,4.899327 -0.01894,0.52827 0.728137,0.5551 0.7471,0.0267 v 0 c 0.05076,-1.61427 0.07885,-3.23062 0.211533,-4.840907 0.06028,-0.52904 -0.687871,-0.61424 -0.748131,-0.0853 z" />
    <path
       style="fill:#000000;stroke-width:0.0753036"
       id="path1252"
       d="m 18.024525,109.37888 c 2.035337,-0.42562 4.049573,-0.94249 6.083647,-1.37507 0.507358,-0.10835 0.354196,-0.82583 -0.153164,-0.71754 v 0 c -2.009184,0.43049 -4.000405,0.94042 -6.015396,1.34271 -0.530274,0.06 -0.445357,0.80998 0.08492,0.7499 z" />
    <path
       style="fill:#000000;stroke-width:0.0753036"
       id="path1254"
       d="m 47.509806,67.583906 c 1.336191,0.883602 2.606962,1.859822 3.921626,2.774653 0.216689,0.18001 0.485984,0.307951 0.672697,0.523701 0.374292,0.382937 0.915834,-0.146414 0.541543,-0.529281 v 0 c -0.240264,-0.232315 -0.513409,-0.420458 -0.790695,-0.606999 -1.331293,-0.914534 -2.611304,-1.899778 -3.950516,-2.802736 -0.453047,-0.279097 -0.847689,0.361622 -0.394655,0.640662 z" />
    <path
       style="fill:#000000;stroke-width:0.0753036"
       id="path1256"
       d="m 51.291872,67.02203 c -0.985821,1.152607 -1.959612,2.314594 -3.037941,3.382543 -0.283659,0.277077 -0.594294,0.517882 -0.864985,0.807073 -0.358024,0.396651 0.202914,0.902958 0.560938,0.506367 v 0 c 0.248577,-0.291092 0.569168,-0.503457 0.828573,-0.785761 1.084195,-1.081542 2.065824,-2.254693 3.07383,-3.40635 0.356303,-0.396294 -0.204113,-0.900168 -0.560415,-0.503872 z" />
    <path
       style="fill:#000000;stroke-width:0.0753036"
       id="path1258"
       d="m 49.532254,67.218009 c 0.183892,1.032443 0.212307,2.082577 0.233383,3.12832 0.05183,0.167427 -0.03787,0.719683 0.02802,0.886868 0.04755,0.120636 0.133492,0.222342 0.200244,0.333541 0.381439,0.376286 0.913585,-0.163154 0.532132,-0.539437 v 0 c 0.0074,0.05285 0.0024,0.20738 0.0222,0.15793 0.02968,-0.07481 -0.09128,-0.828687 -0.03343,-0.854868 -0.02445,-1.087242 -0.05982,-2.178106 -0.241602,-3.252701 -0.09922,-0.523941 -0.840179,-0.38359 -0.740942,0.140342 z" />
    <path
       style="fill:#000000;stroke-width:0.0753036"
       id="path1260"
       d="m 46.528633,81.230788 c 1.605596,-0.313235 3.20539,-0.657647 4.819997,-0.922194 0.500624,-0.07046 0.287183,-0.06365 0.638084,-0.05701 0.533604,-0.0059 0.526783,-0.759458 -0.0068,-0.754656 v 0 c -0.457808,0.01255 -0.205859,-0.0071 -0.754252,0.07648 -1.62153,0.276664 -3.229939,0.622613 -4.847336,0.922009 -0.520022,0.106339 -0.369684,0.841753 0.150332,0.735416 z" />
    <path
       style="fill:#000000;stroke-width:0.0753036"
       id="path1262"
       d="m 48.568799,77.017658 c -0.08875,0.352241 -0.277176,1.02888 0.02072,1.342829 0.328518,0.346185 0.682197,0.347611 1.067365,0.128827 0.143769,-0.08163 0.234166,-0.233442 0.35126,-0.350165 0.03775,-0.162729 0.139749,-0.323209 0.113377,-0.488138 -0.0618,-0.38638 -0.399839,-0.706326 -0.789762,-0.744736 -0.232166,-0.02255 -0.459339,0.08193 -0.689006,0.122891 -0.510195,0.143259 -0.307672,0.864782 0.202529,0.721523 v 0 c 0.411767,-0.239497 0.0589,-0.0909 0.419364,-0.127403 0.165936,-0.01662 0.05349,-0.09096 0.170386,0.0273 -0.02357,0.04808 -0.04345,0.09855 -0.07072,0.144855 -0.02215,0.03739 -0.06396,0.06424 -0.0769,0.105914 -0.01594,0.05105 0.04299,0.138985 -0.0061,0.160711 -0.04542,0.02018 -0.08351,-0.06793 -0.09275,-0.116836 -0.04547,-0.240211 0.04874,-0.496275 0.104829,-0.720633 0.146415,-0.512422 -0.578287,-0.719503 -0.724712,-0.207023 z" />
    <path
       style="fill:#000000;stroke-width:0.0753036"
       id="path1264"
       d="m 49.542097,83.771405 c 0.433668,0.02493 0.905985,0.07992 1.32677,-0.07232 0.104896,-0.03799 0.282495,-0.05522 0.290092,-0.166766 0.06286,-0.92071 -0.249952,-0.725975 -0.823894,-0.717249 -0.820587,0.230889 -0.417375,0.0576 -1.197645,0.547332 -0.440692,0.290437 -0.02992,0.913703 0.410781,0.623207 v 0 c 0.532814,-0.376109 0.247191,-0.238075 0.85286,-0.422418 0.412847,-0.11548 0.225346,0.01136 0.321774,-0.648675 0.0024,-0.01721 -6.53e-4,0.04333 -0.01662,0.04986 -0.08548,0.03442 -0.177324,0.05403 -0.268784,0.06596 -0.12798,0.01721 -0.257617,0.02018 -0.386707,0.02078 -0.116396,0 -0.232503,-0.01136 -0.348751,-0.01662 -0.521285,-0.113038 -0.681175,0.624157 -0.159897,0.737197 z" />
    <path
       style="fill:#000000;stroke-width:0.0571007"
       id="path1266"
       d="m 73.096852,37.819649 c 0.02368,0.603023 0.01323,1.206497 4.95e-4,1.809612 -0.0082,0.399632 0.556866,0.411246 0.565118,0.0117 v 0 c 0.01247,-0.612658 0.02197,-1.225497 0.0065,-1.8382 -0.01196,-0.404493 -0.584017,-0.387611 -0.572072,0.01666 z" />
    <path
       style="fill:#000000;stroke-width:0.0571007"
       id="path1268"
       d="m 73.00667,41.956816 c 0.01809,0.401025 0.007,0.197316 0.03399,0.611174 0.02607,0.401834 0.594413,0.364965 0.568335,-0.03691 v 0 c -0.02544,-0.395581 -0.01553,-0.201504 -0.03035,-0.582181 -0.0055,-0.404403 -0.577549,-0.396524 -0.57196,0.0081 z" />
    <path
       style="fill:#000000;stroke-width:0.0571007"
       id="path1270"
       d="m 73.842968,43.890051 c 0.656673,-0.173368 1.331224,-0.256652 2.002806,-0.347048 0.399119,-0.05547 0.320696,-0.619907 -0.07842,-0.564445 v 0 c -0.693045,0.09927 -1.389335,0.187458 -2.069305,0.359383 -0.390387,0.10251 -0.245473,0.654572 0.144914,0.55211 z" />
    <path
       style="fill:#000000;stroke-width:0.0571007"
       id="path1272"
       d="m 77.286907,43.291033 c 0.407855,-0.04503 0.817705,-0.0659 1.227037,-0.09175 0.402562,-0.02656 0.365312,-0.595642 -0.03723,-0.569263 v 0 c -0.416508,0.02836 -0.833457,0.05118 -1.248982,0.09216 -0.402217,0.04187 -0.34303,0.610679 0.05918,0.568855 z" />
    <path
       style="fill:#000000;stroke-width:0.0571007"
       id="path1274"
       d="m 79.84023,42.472458 c 0.0675,-0.636247 0.109941,-1.275106 0.07104,-1.91437 -0.02584,-0.403144 -0.595934,-0.366588 -0.570089,0.03647 v 0 c 0.0416,0.613423 -0.0013,1.226667 -0.07168,1.836715 -0.02913,0.403546 0.541606,0.444739 0.570725,0.04097 z" />
    <path
       style="fill:#000000;stroke-width:0.0571007"
       id="path1276"
       d="m 79.745631,38.528106 c 0.04029,-0.416107 0.06409,-0.833519 0.09945,-1.250032 0.03327,-0.402017 -0.535317,-0.449061 -0.568572,-0.04704 v 0 c -0.03331,0.413092 -0.05521,0.827039 -0.09952,1.239183 -0.04097,0.402107 0.527695,0.46 0.568648,0.05789 z" />
    <path
       style="fill:#000000;stroke-width:0.0571007"
       id="path1278"
       d="m 74.724227,37.085979 c 0.634595,-0.195785 1.292357,-0.286993 1.952326,-0.338584 0.401919,-0.03196 0.356868,-0.600235 -0.04504,-0.568406 v 0 c -0.706935,0.05682 -1.41014,0.161707 -2.091271,0.365325 -0.383015,0.130106 -0.199015,0.671769 0.183995,0.541665 z" />
    <path
       style="fill:#000000;stroke-width:0.0571007"
       id="path1280"
       d="m 77.944998,36.639935 c 0.447139,0.02205 0.21592,0.01132 0.693666,0.03107 0.40139,0.01711 0.425681,-0.550487 0.0243,-0.567685 v 0 c -0.470489,-0.02071 -0.242748,-0.0095 -0.683264,-0.03421 -0.40356,-0.0243 -0.438252,0.546212 -0.03471,0.570701 z" />
    <path
       style="fill:#000000;stroke-width:0.0571007"
       id="path1282"
       d="m 80.651613,33.871784 c 0.145141,-0.593481 0.458332,-1.010713 0.996623,-1.293656 0.09092,-0.01261 0.17515,-0.05375 0.252299,0.01935 0.02247,0.02116 0.02683,0.05573 0.04029,0.08355 0.10665,0.219737 0.16254,0.43407 0.217156,0.672173 0.08518,0.587179 -0.244918,0.879123 -0.658266,1.232296 -0.287218,0.224553 -0.599239,0.42124 -0.851226,0.687342 -0.151136,0.159683 -0.139584,0.346645 -0.03696,0.524018 0.198873,0.174177 0.469153,0.207762 0.721166,0.256382 0.39923,0.0609 0.80655,0.0234 1.20518,-0.0252 0.213564,-0.0279 0.427547,-0.05028 0.64271,-0.05929 0.404546,-0.01755 0.379903,-0.58952 -0.02463,-0.572098 v 0 c -0.230708,0.01029 -0.460171,0.03241 -0.689101,0.06325 -0.338918,0.04367 -0.686057,0.07667 -1.026214,0.03018 -0.147454,-0.0279 -0.109003,-0.01846 -0.254453,-0.05505 -0.03728,-0.0095 -0.24668,-0.09936 -0.114932,0.01441 0.04201,0.08991 0.0473,0.150812 -0.01539,0.233646 -0.0052,0.0068 0.01041,-0.0135 0.01557,-0.02025 0.226759,-0.258902 0.542548,-0.422679 0.800253,-0.646063 0.602357,-0.52397 0.966351,-0.948857 0.840786,-1.793586 -0.127985,-0.534821 -0.324995,-1.272136 -1.025859,-1.225227 -0.10764,0.0072 -0.208954,0.05375 -0.313442,0.08067 -0.08998,0.05109 -0.184635,0.09472 -0.269931,0.153289 -0.523738,0.359655 -0.855382,0.904831 -1.009601,1.514157 -0.08912,0.394542 0.468833,0.52055 0.557947,0.126056 z" />
    <path
       style="fill:#000000;stroke-width:0.0612537"
       id="path1284"
       d="m 74.209748,54.777981 c 0.270039,0.521032 0.525146,1.073359 0.907858,1.524608 0.09266,0.03477 0.186758,0.142948 0.277978,0.104461 0.369659,-0.155747 0.349908,-0.412325 0.369896,-0.717923 0.01007,-0.154537 0.01463,-0.309461 0.01757,-0.464288 0.0097,-0.511567 -4.83e-4,-0.714204 -0.01173,-1.233354 -0.03724,-1.057372 -0.16307,-2.108999 -0.25289,-3.162751 -0.01854,-0.275752 -0.04617,-0.551939 -0.04467,-0.828609 9.86e-4,-0.07151 0.0025,-0.143093 0.0051,-0.214615 0,-0.0062 9.86e-4,-0.02365 0,-0.01787 -0.0099,0.0662 -0.01338,0.111165 -0.06029,0.160863 -0.0056,0.0048 -0.02159,0.01497 -0.01667,0.01062 0.109827,-0.09745 0.156509,-0.138697 0.283234,-0.209543 0.496765,-0.216594 1.0542,-0.254069 1.588326,-0.298113 0.780167,-0.03525 1.561571,-0.03525 2.342418,-0.0367 0.503154,0.01062 1.005228,-0.01448 1.506246,-0.05747 0.116035,-0.01214 0.232507,-0.01593 0.349018,-0.01159 0.147284,0.03865 -0.130409,-0.297388 -0.261834,-0.37432 -0.03318,-0.01932 -0.03134,0.369683 -0.03148,0.379825 0.0045,0.41247 0.03163,0.824263 0.04506,1.236492 0.008,0.150287 -4.83e-4,0.06819 0.03042,0.245618 0.08189,0.428021 0.687174,0.312213 0.605283,-0.1158 v 0 c -0.02143,-0.09287 -0.01338,-0.04249 -0.02047,-0.152268 -0.01623,-0.401989 -0.04318,-0.803788 -0.04515,-1.20626 0.0025,-0.215675 -0.03365,-0.646931 -0.3047,-0.630947 -0.140726,-0.0048 -0.281417,0 -0.421409,0.01642 -0.483002,0.0454 -0.967206,0.07012 -1.452636,0.05959 -0.797119,0.0048 -1.59474,0.0062 -2.39121,0.03961 -0.622544,0.05197 -1.269843,0.100598 -1.842031,0.371469 -0.130769,0.07524 -0.174922,0.092 -0.287701,0.189551 -0.01396,0.01214 -0.175371,0.190322 0.02289,0.0062 0.01104,-0.01022 -0.02603,0.01497 -0.03901,0.0227 -0.122421,0.08679 -0.206471,0.198242 -0.216719,0.353166 -0.0015,0.07769 -0.0033,0.155502 -0.0045,0.233256 4.82e-4,0.294971 0.03206,0.589076 0.05477,0.882841 0.09473,1.039796 0.216053,2.078334 0.256353,3.122041 0.01117,0.543634 0.02018,1.084803 -0.01117,1.628003 -0.0048,0.08306 -0.08991,0.203121 -0.02038,0.248854 0.123388,0.08114 0.334971,-0.28797 0.442887,0.01255 -0.110987,-0.114364 -0.198445,-0.264405 -0.28197,-0.397644 -0.197106,-0.314339 -0.381117,-0.637565 -0.531443,-0.977256 -0.183099,-0.393056 -0.73896,-0.134107 -0.555852,0.258947 z" />
    <path
       style="fill:#000000;stroke-width:0.0612537"
       id="path1286"
       d="m 74.315319,53.88846 c -0.679476,-0.119622 -1.377961,-0.321439 -2.071877,-0.212007 -0.428161,0.07877 -0.316714,0.684311 0.111454,0.605496 v 0 c 0.54938,-0.131788 1.282167,0.127154 1.827707,0.203654 0.422235,0.09384 0.554954,-0.50331 0.132713,-0.597143 z" />
    <path
       style="fill:#000000;stroke-width:0.08323"
       id="path1288"
       d="m 96.634325,13.11844 c -0.953378,1.905552 -1.661316,4.051309 -1.995493,6.253565 -0.08904,0.586664 -0.125333,1.183409 -0.187983,1.775151 -0.08446,1.79386 0.0675,3.583443 0.757529,5.203968 0.262063,0.615529 0.621985,1.160999 0.932975,1.741499 0.281165,0.520954 0.884339,0.03553 0.603157,-0.48578 v 0 c -0.285855,-0.525453 -0.6152,-1.019283 -0.857552,-1.57643 -0.644898,-1.482651 -0.789311,-3.121163 -0.71484,-4.770045 0.05834,-0.558306 0.09158,-1.121471 0.175042,-1.675063 0.315521,-2.093322 0.982242,-4.140009 1.905541,-5.939602 0.305223,-0.534081 -0.313135,-1.061419 -0.618376,-0.527263 z" />
    <path
       style="fill:#000000;stroke-width:0.0690381"
       id="path1290"
       d="m 116.56004,13.026092 c 0.86638,1.500108 1.2523,3.444959 1.59651,5.338953 0.22864,1.452357 0.38633,2.961921 0.29229,4.460474 -0.0142,0.226527 -0.0427,0.450417 -0.064,0.675662 -0.14662,1.239272 -0.57215,2.301188 -1.02481,3.325482 6.6e-4,0.07416 -0.33981,0.65047 -0.34521,0.747657 -0.01,0.187224 0.0183,0.374639 0.0275,0.561925 0.22347,0.504313 0.68667,0.01755 0.4632,-0.486552 v 0 c -0.0113,0.140823 -0.0503,0.282718 -0.0342,0.422593 0.006,0.05807 0.0438,-0.09712 0.0658,-0.145685 0.26724,-0.591169 -0.0685,0.151761 0.28119,-0.622102 0.4969,-1.134453 0.95776,-2.312602 1.1121,-3.683577 0.0228,-0.251717 0.0535,-0.502084 0.0686,-0.755152 0.0945,-1.588989 -0.0737,-3.188785 -0.31894,-4.727255 -0.37291,-2.033596 -0.79611,-4.108597 -1.72628,-5.719536 -0.27882,-0.428534 -0.67239,0.178574 -0.39357,0.607109 z" />
    <path
       style="fill:#000000;stroke-width:0.0753036"
       id="path1292"
       d="m 99.394289,27.03443 c 0.821051,0 1.639851,-0.05226 2.457101,-0.126809 0.0555,-0.0059 0.11075,-0.01069 0.16603,-0.01544 0.083,-0.0078 0.1294,-0.01306 0.12923,-0.01374 -0.11261,-0.757976 0.0958,-0.767119 -0.2162,-0.745983 0.13568,0.157693 0.21222,0.400392 0.40718,0.47306 0.096,0.03562 0.0416,-0.201028 0.049,-0.303084 0.0323,-0.439397 -0.0621,-0.90557 -0.11296,-1.339861 -0.0549,-0.460592 -0.11583,-0.922074 -0.11634,-1.386644 5e-5,-0.09915 0.0102,-0.06792 0.0118,-0.218897 0.0118,-0.115712 0.0422,-0.229049 0.0644,-0.343158 0.0735,-0.31947 -0.0739,0.216522 0.0529,-0.260694 0.008,-0.173776 -0.0551,-0.520733 -0.26221,0.29032 -0.0135,0.05343 0.1099,-0.0059 0.16468,-0.0095 0.0784,-0.0059 0.15638,-0.01484 0.23463,-0.02196 0.3842,-0.0279 0.76902,-0.147712 1.15577,-0.103839 0.32177,0.07778 0.62869,0.198474 0.95158,0.272212 0.37659,0.05284 0.75477,0.08799 1.13477,0.09915 0.25272,0.0196 0.50918,-0.01722 0.76142,0.0059 0.12143,0.02968 0.24493,0.05165 0.36698,0.07985 0.12397,0.02494 0.25034,0.04156 0.37701,0.03622 0.0565,0.01662 -0.0797,-0.0095 -0.10141,-0.02019 0.18735,-0.09517 0.39762,-0.154718 0.56204,-0.28551 0.0492,-0.03918 0.0237,-0.123728 0.0308,-0.186243 0.0407,-0.355923 0.0102,-0.708878 -0.0308,-1.062782 -0.0714,-0.499182 -0.22544,-0.980197 -0.38425,-1.457056 -0.06,-0.175616 -0.0751,-0.357585 -0.0737,-0.541513 0.007,-0.326001 0.008,-0.65206 0.008,-0.97806 -0.008,-0.258497 0.0195,-0.515628 0.0355,-0.773175 0.0102,-0.146703 0.0205,-0.294 0.0414,-0.439753 -0.24365,0.309436 -0.50109,0.337992 -0.17631,0.321428 0.12534,-0.0065 0.25059,-0.01543 0.37602,-0.02137 0.3502,-0.01306 0.70067,-0.0059 1.0509,-0.01306 0.36793,-0.01662 0.73611,-0.02256 1.10434,-0.02435 0.43419,0.0059 0.86809,-0.01187 1.30203,-0.02374 0.0469,-0.0059 0.0941,-0.0059 0.14111,-0.0095 0.0999,-0.0077 0.11261,-0.0095 0.21201,-0.02612 0.037,-0.0059 0.14619,-0.02909 0.11177,-0.01365 0.0152,0.0072 0.0287,0.0184 0.0433,0.02731 -0.007,-0.0059 -0.0277,-0.01366 -0.0195,-0.01425 0.18289,-0.02196 0.36659,-0.0374 0.5504,-0.04868 0.005,0 -0.11651,0.08157 -0.10091,0.05759 0.087,-0.133404 0.19434,-0.252381 0.2915,-0.378542 0.0273,-0.221628 0.0902,-0.434707 0.11821,-0.657403 0.0271,-0.334313 0.0336,-0.66999 0.0699,-1.003531 0.0251,-0.178406 0.0266,-0.359188 0.0547,-0.536941 0.0297,-0.150028 0.0101,-0.304924 0.027,-0.455605 0.0135,-0.06044 -0.005,0.01662 -0.007,0.02375 0.225,-0.488317 -0.46556,-0.80648 -0.69055,-0.318222 v 0 c -0.0317,0.07653 -0.056,0.155489 -0.0595,0.239023 -0.008,0.131564 -0.002,0.264019 -0.0197,0.395047 -0.0289,0.189925 -0.0331,0.382046 -0.057,0.572742 -0.0342,0.330038 -0.0448,0.661619 -0.069,0.992488 -0.0256,0.222162 -0.0984,0.432985 -0.1199,0.655385 0.0926,-0.08864 0.19735,-0.166059 0.27761,-0.265978 0.005,-0.0059 -0.25923,0.128476 -0.24065,0.132395 0.62353,0.130853 0.58518,0.112032 0.43764,-0.0072 -0.13008,-0.08893 -0.27539,-0.14967 -0.43321,-0.166591 -0.18353,0 -0.35783,0.03681 -0.54078,0.04987 -0.42703,0.01425 -0.85411,0.03028 -1.28148,0.02375 -0.37448,0 -0.74884,0.0083 -1.12298,0.02435 -0.35501,0.01068 -0.7103,0 -1.06525,0.01246 -0.28074,0.01366 -0.83998,-0.02256 -0.91812,0.361859 -0.0188,0.162853 -0.0331,0.326239 -0.0444,0.489743 -0.0152,0.271795 -0.0435,0.543175 -0.0342,0.815862 -9e-4,0.325822 -0.004,0.651585 -0.0118,0.977229 0,0.267045 0.0278,0.531776 0.11465,0.786175 0.14518,0.426752 0.2865,0.857303 0.35311,1.304656 0.0287,0.236114 0.0494,0.465103 0.0407,0.703296 -0.007,0.177872 -0.0228,0.238489 -0.019,0.237836 0.18121,-0.03028 0.35058,-0.110131 0.52587,-0.165227 -0.0946,-0.04691 -0.19755,-0.07789 -0.30492,-0.06964 -0.0135,0 -0.1238,-0.0059 -0.16179,-0.01722 -0.16231,-0.03681 -0.325,-0.07142 -0.48935,-0.0976 -0.26196,-0.01366 -0.52467,0.0077 -0.78685,-0.0059 -0.33196,-0.0095 -0.66194,-0.04156 -0.99159,-0.08133 -0.35557,-0.07736 -0.68886,-0.232434 -1.05011,-0.287944 -0.43506,-0.03265 -0.86089,0.05165 -1.29183,0.105559 -0.27847,0.02494 -0.83101,0.0059 -0.82701,0.457505 0.12092,-0.352539 -0.0444,0.06329 -0.0385,0.151453 -0.0309,0.157864 -0.0741,0.314423 -0.079,0.476028 -5.9e-4,0.02197 -0.008,0.138153 -0.0118,0.23653 0.007,0.49182 0.0677,0.980258 0.12771,1.467862 0.0241,0.210289 0.059,0.503933 0.079,0.718318 0.0152,0.157031 0.0102,0.31561 0.0263,0.472406 0.0264,0.246503 1.75942,-0.04512 0.36096,0.650338 0.30096,-0.02671 0.0739,0.0083 0.0517,-0.764863 0,-0.0078 -0.0152,0 -0.0219,0.0059 -0.0275,0.0059 -0.0551,0.0072 -0.0828,0.01018 -0.0538,0.0065 -0.10752,0.01187 -0.16145,0.0178 -0.79278,0.07949 -1.58806,0.130251 -2.385326,0.123366 -0.533639,0 -0.533639,0.754652 0,0.754652 z" />
    <path
       style="fill:#000000;stroke-width:0.0753036"
       id="path1294"
       d="m 112.11118,14.780899 c 0.86021,0.0065 1.71938,-0.03087 2.57771,-0.08288 0.52606,-0.03265 0.48007,-0.776499 -0.046,-0.743964 v 0 c -0.84288,0.05284 -1.68683,0.09167 -2.53174,0.07296 -0.53306,0 -0.53306,0.75388 0,0.75388 z" />
  </g>
</svg>
